Coordinates
version=1
nRows=8
nColumns=36
inDegrees=yes

Units are S.I. units (second, meters, Newtons, ...)
If the header above contains a line with 'inDegrees', this indicates whether rotational values are in degrees (yes) or radians (no).

endheader
time	pelvis_tilt	pelvis_list	pelvis_rotation	pelvis_tx	pelvis_ty	pelvis_tz	hip_flexion_r	hip_adduction_r	hip_rotation_r	knee_angle_r	knee_angle_r_beta	ankle_angle_r	subtalar_angle_r	mtp_angle_r	hip_flexion_l	hip_adduction_l	hip_rotation_l	knee_angle_l	knee_angle_l_beta	ankle_angle_l	subtalar_angle_l	mtp_angle_l	lumbar_extension	lumbar_bending	lumbar_rotation	arm_flex_r	arm_add_r	arm_rot_r	elbow_flex_r	pro_sup_r	arm_flex_l	arm_add_l	arm_rot_l	elbow_flex_l	pro_sup_l
      6.71666670	    -11.03853214	     -3.11867508	     -4.45918039	      1.61877658	      0.89461986	      0.11692527	     32.56403429	      4.30448457	     -6.57003116	     36.92552975	      0.64447207	     21.22180031	     11.27367089	     -7.49999987	     55.40979935	     -8.78128920	     -2.45888654	     33.61748900	      0.58673587	     17.87565480	     -0.91523862	     -7.49999987	     -9.91313103	      9.85637159	      1.76482391	     53.97686347	     -2.62576735	     70.19833155	    125.88944183	    101.22103242	     45.42191717	      5.30589221	     64.27799149	    123.36211198	    106.36827448
      6.73333330	    -12.32723477	     -3.58978298	     -5.17926016	      1.61399222	      0.88072453	      0.11296744	     35.75281106	      4.65144079	     -7.59405883	     40.35043033	      0.70424786	     23.28889069	     12.62046725	     -7.49999987	     59.52086869	     -9.88641290	     -1.26907085	     34.38369677	      0.60010872	     17.42805829	      0.33168735	     -7.49999987	     -9.48082941	     10.70669182	      2.30359064	     54.82001815	     -2.93231898	     69.93930630	    126.20355039	    101.08163077	     45.44827581	      5.54706672	     63.64926390	    123.25964374	    106.18568265
      6.75000000	    -13.45265820	     -4.07036088	     -5.96826001	      1.61318986	      0.87205490	      0.11394930	     38.77312011	      5.12888420	     -8.35455218	     43.82737545	      0.76493200	     25.32157759	     13.97963530	     -7.49999987	     63.19982491	    -10.92184923	      0.17036634	     35.07590878	      0.61219010	     16.70159184	      1.53759766	     -7.49999987	     -9.15918273	     11.59177221	      3.08145950	     55.23079280	     -3.21825496	     69.29295450	    125.81185179	    100.11412537	     46.07032140	      6.11501436	     63.84949345	    123.00109945	    105.28707267
      6.76666670	    -14.41000059	     -4.43387419	     -6.74502843	      1.61250999	      0.86459362	      0.11476902	     41.70046678	      5.57898436	     -8.90080327	     47.47306098	      0.82856122	     27.11543797	     14.84102417	     -7.49999987	     66.53501606	    -11.90909388	      1.44087939	     35.97199477	      0.62782975	     15.82718916	      2.44102884	     -7.49999987	     -9.05758268	     12.39865015	      3.83255257	     55.00752391	     -4.07487117	     69.79859191	    125.55558352	    101.30093453	     45.93136367	      6.43138705	     64.11611738	    122.37396924	    107.22535727
      6.78333330	    -15.13430697	     -4.73102139	     -7.48269281	      1.61254603	      0.85711222	      0.12282801	     44.22964954	      6.20505871	     -9.16870927	     50.97477305	      0.88967763	     28.93169527	     15.38154357	     -7.49999987	     69.39802462	    -12.82319889	      2.57105768	     36.95129075	      0.64492169	     15.02410405	      3.46769336	     -7.49999987	     -9.05087944	     12.93936215	      4.68930657	     54.64915981	     -4.40298636	     70.12446164	    124.93376734	    101.43430775	     45.69903786	      6.28176223	     64.31183498	    122.17913834	    107.29747120
      6.80000000	    -15.73097483	     -4.88806987	     -8.16115525	      1.60890093	      0.84494127	      0.12104962	     46.87176596	      6.68474301	     -9.22430071	     54.79386384	      0.95633333	     30.65934372	     15.57963730	     -7.49999987	     72.18002824	    -13.60304643	      3.54408613	     38.52248333	      0.67234417	     14.34132920	      4.66025743	     -7.49999987	     -9.12030818	     13.36673979	      5.40608065	     54.82627118	     -4.29711092	     69.83270685	    124.86468452	    101.44302420	     45.83203276	      6.47406018	     64.29055265	    122.69181325	    107.19790348
      6.81666670	    -16.53041420	     -4.89196599	     -8.71346975	      1.60805616	      0.82852359	      0.12167639	     49.77298471	      7.01112299	     -9.30631339	     58.68845721	      1.02430681	     32.58647866	     15.87446693	     -7.49999987	     75.13980396	    -14.22159664	      4.50935968	     40.31892031	      0.70369791	     13.65197089	      5.41341643	     -7.49999987	     -8.65091811	     13.59640387	      5.70406582	     54.40715099	     -4.37686191	     69.78291793	    125.28020546	    100.68932646	     45.50652946	      6.10688596	     64.66668975	    122.61057777	    106.55934834
      6.83333330	    -16.99017773	     -4.79581824	     -8.92785357	      1.60720796	      0.81824247	      0.12184247	     52.15734260	      7.14186252	     -9.18601308	     62.39229742	      1.08895102	     34.42223995	     15.64706388	     -7.49999987	     77.53705449	    -14.56032494	      5.26941714	     42.22138874	      0.73690225	     13.00120968	      5.73128758	     -7.49999987	     -8.73800270	     13.74330552	      6.26058031	     54.81642404	     -4.10590901	     69.87352034	    124.86168599	    100.99892052	     45.99562782	      6.61723663	     64.96398628	    123.02257603	    106.87656004
